<?xml version="1.0" encoding="utf-8"?>
<!-- Generator: Adobe Illustrator 15.0.0, SVG Export Plug-In . SVG Version: 6.00 Build 0)  -->
<!DOCTYPE svg PUBLIC "-//W3C//DTD SVG 1.1//EN" "http://www.w3.org/Graphics/SVG/1.1/DTD/svg11.dtd">
<svg version="1.1" id="Layer_1" xmlns="http://www.w3.org/2000/svg" xmlns:xlink="http://www.w3.org/1999/xlink" x="0px" y="0px"
	 width="158px" height="21px" viewBox="218.64 410.445 158 21" enable-background="new 218.64 410.445 158 21" xml:space="preserve"
	>
<g>
	<g>
		<path d="M329.376,425.54v-0.383c-0.415,0-0.623-0.329-0.623-0.744c0-0.191,0.033-0.573,0.119-0.867l0.47-1.526h4.075l0.609,1.612
			c0.12,0.348,0.205,0.642,0.205,0.883c0,0.399-0.205,0.642-0.569,0.642v0.383c0.591,0,1.162-0.068,1.751-0.068
			c0.59,0,1.164,0.068,1.752,0.068v-0.383c-0.623-0.068-0.779-0.642-1.386-2.184l-3.801-9.748h-0.208l-3.693,9.333
			c-0.33,0.832-0.988,2.462-1.682,2.599v0.383c0.5,0,0.988-0.068,1.49-0.068C328.388,425.471,328.873,425.54,329.376,425.54z
			 M331.354,416.624l1.752,4.562h-3.436L331.354,416.624z"/>
		<path d="M340.459,425.712c0.589,0,0.919-0.086,1.214-0.26l1.006-0.883c0.278,0.519,0.765,0.952,1.318,1.143
			c0.33-0.416,0.973-0.885,1.579-1.282l-0.259-0.261c-0.123,0.069-0.245,0.14-0.486,0.14c-0.399,0-0.537-0.348-0.537-0.974v-4.317
			c0-2.499,0.068-4.441,0.068-5.794h-0.346c-0.435,0.485-1.475,0.972-2.324,1.197v0.346c0.451,0.071,0.884,0.313,0.884,1.284v2.566
			c-0.591-0.276-1.18-0.433-1.769-0.433c-2.222,0-3.853,1.387-3.853,3.798C336.956,424.083,338.345,425.712,340.459,425.712z
			 M340.754,418.878c1.369,0,1.855,0.694,1.855,2.342v2.844c-0.45,0.434-0.901,0.607-1.405,0.607c-1.508,0-2.377-1.699-2.377-3.141
			C338.83,420.353,339.384,418.878,340.754,418.878z"/>
		<path d="M349.567,425.712c0.728,0,1.301-0.138,1.648-0.26l0.937-1.369l-0.174-0.208c-0.52,0.379-1.178,0.555-1.82,0.555
			c-1.786,0-3.02-1.562-2.897-3.278h5.048c-0.018-1.838-1.407-2.966-3.191-2.966c-2.36,0-3.538,2.134-3.538,3.762
			C345.577,423.58,346.754,425.712,349.567,425.712z M348.82,418.775c1.129,0,1.613,0.658,1.613,1.682h-3.123
			C347.279,419.572,347.883,418.775,348.82,418.775z"/>
		<path d="M356.609,423.945c0,0.676-0.573,1.074-1.216,1.074c-0.778,0-1.456-0.589-1.628-1.423h-0.641l0.103,1.613
			c0.521,0.33,1.405,0.503,2.013,0.503c1.492,0,2.757-0.676,2.757-2.323c0-2.377-3.451-1.752-3.451-3.417
			c0-0.712,0.504-1.094,1.196-1.094c0.938,0,1.425,0.435,1.614,1.319h0.556l0.069-1.562c-0.729-0.225-1.457-0.451-2.204-0.451
			c-1.421,0-2.739,0.693-2.739,2.29C353.036,422.938,356.609,422.677,356.609,423.945z"/>
		<path d="M359.419,415.809c0.052,0.659,0.139,1.96,0.139,2.966v5.619c0,0.381-0.139,0.693-0.694,0.779v0.348
			c0.502,0,0.988-0.051,1.49-0.051c0.522,0,1.042,0.051,1.562,0.051v-0.348c-0.537-0.086-0.676-0.398-0.676-0.987v-6.729
			c0-1.596,0.052-3.296,0.069-4.232h-0.348c-0.451,0.485-1.818,0.972-2.428,1.059v0.398
			C359.089,414.681,359.386,415.097,359.419,415.809z"/>
		<path d="M364.606,425.712c0.763,0,1.315-0.416,1.907-0.849c0.207,0.433,0.729,0.763,1.387,0.849l1.301-1.04l-0.261-0.26
			c-0.121,0.035-0.274,0.068-0.362,0.068c-0.383,0-0.521-0.227-0.521-1.022v-0.607c0.018-0.989,0.069-1.889,0.069-2.515
			c0-1.735-1.318-2.151-2.862-2.151c-0.815,0-1.51,0.104-2.236,0.312v1.648h0.417c0.435-0.643,0.867-0.921,1.717-0.921
			c1.178,0,1.247,1.042,1.247,1.977c-0.241,0-0.537-0.05-0.816-0.05c-1.575,0-3.328,0.71-3.328,2.55
			C362.263,424.984,363.425,425.712,364.606,425.712z M365.576,421.741c0.314,0,0.643,0.052,0.832,0.087l0.054,2.549
			c-0.278,0.176-0.625,0.296-1.164,0.296c-0.728,0-1.352-0.607-1.352-1.405C363.946,422.157,364.778,421.741,365.576,421.741z"/>
		<path d="M373.139,423.945c0,0.676-0.572,1.074-1.215,1.074c-0.781,0-1.457-0.589-1.631-1.423h-0.641l0.105,1.613
			c0.52,0.33,1.405,0.503,2.012,0.503c1.49,0,2.757-0.676,2.757-2.323c0-2.377-3.452-1.752-3.452-3.417
			c0-0.712,0.506-1.094,1.197-1.094c0.937,0,1.425,0.435,1.612,1.319h0.558l0.067-1.562c-0.728-0.225-1.459-0.451-2.204-0.451
			c-1.421,0-2.739,0.693-2.739,2.29C369.566,422.938,373.139,422.677,373.139,423.945z"/>
		<path d="M250.657,422.769c0,1.359-1.06,2.239-2.381,2.239c-1.146,0-2.38-0.793-2.663-1.956h-0.636l0.176,1.886
			c0.582,0.389,1.995,0.813,3.14,0.813c2.082,0,4.076-1.307,4.076-3.583c0-4.779-6.015-2.485-6.015-6.208
			c0-1.235,1.095-2.205,2.293-2.205c1.322,0,2.416,0.531,2.892,1.87h0.671v-1.921c-1.06-0.547-2.257-0.688-3.441-0.688
			c-2.238,0-4.126,1.499-4.126,3.845C244.642,421.464,250.657,419.666,250.657,422.769z"/>
		<path d="M260.321,421.077c-0.016-1.87-1.428-3.017-3.246-3.017c-2.398,0-3.597,2.168-3.597,3.829c0,1.659,1.199,3.826,4.056,3.826
			c0.742,0,1.323-0.14,1.675-0.263l0.955-1.395l-0.179-0.211c-0.528,0.388-1.199,0.564-1.852,0.564
			c-1.815,0-3.069-1.589-2.945-3.334H260.321z M256.778,418.659c1.146,0,1.638,0.671,1.638,1.712h-3.174
			C255.207,419.47,255.824,418.659,256.778,418.659z"/>
		<path d="M264.379,418.06c-1.71,0-3.105,1.005-3.105,2.804c0,1.111,0.796,2.03,1.729,2.522c-0.882,0.548-1.905,1.059-1.905,2.17
			c0,0.459,0.124,0.671,1.305,0.531v0.034c-0.512,0.23-1.022,0.635-1.022,1.252c0,1.464,1.798,1.711,2.893,1.711
			c1.658,0,4.057-0.706,4.057-2.75c0-1.236-0.882-1.59-2.664-1.59c-1.129,0-1.78,0.054-2.451,0.054
			c-0.212,0-0.407-0.054-0.407-0.301c0-0.44,0.76-0.863,1.641-0.863c1.941,0,3.476-0.688,3.476-2.805
			c0-0.334-0.071-0.724-0.334-1.305h1.198v-0.847h-1.94C266.143,418.254,265.295,418.06,264.379,418.06z M264.925,426.05
			c1.409,0,2.134,0.229,2.134,0.953c0,1.163-1.607,1.48-2.504,1.48c-0.725,0-1.974-0.263-1.974-1.217
			C262.581,426.315,263.391,426.05,264.925,426.05z M264.591,423.034c-1.022,0-1.606-0.811-1.606-2.188
			c0-1.375,0.583-2.186,1.606-2.186c1.04,0,1.622,0.811,1.622,2.186C266.212,422.223,265.63,423.034,264.591,423.034z"/>
		<path d="M270.288,419.435c0,0.425,0.052,1.093,0.052,1.8v1.64c0,1.606,0.864,2.84,2.626,2.84c0.673,0,1.801-0.492,2.294-0.917
			c0.141,0.248,0.989,0.917,1.148,0.917c0.141,0,1.479-0.635,1.657-0.739l-0.141-0.335c-0.159,0.071-0.264,0.122-0.441,0.122
			c-0.354,0-0.528-0.228-0.528-0.934v-4.393c0-0.512,0.174-0.705,0.528-0.828v-0.353c-0.422,0.051-0.863,0.051-1.288,0.051
			c-0.53,0-1.04,0.017-1.57-0.051v0.353c0.513,0.158,0.618,0.404,0.618,0.828v4.833c-0.37,0.266-0.881,0.387-1.323,0.387
			c-1.181,0-1.869-0.616-1.869-1.955v-1.396c0-0.706-0.052-1.444-0.052-1.869c0-0.495,0.174-0.705,0.74-0.828v-0.353
			c-0.495,0.051-0.969,0.051-1.465,0.051c-0.512,0-1.005,0-1.516-0.051v0.353C270.182,418.625,270.288,418.855,270.288,419.435z"/>
		<path d="M279.318,420.334c0,0.583,0.088,1.324,0.088,2.135v1.869c0,0.53-0.177,0.741-0.529,0.83v0.353
			c0.477-0.018,0.952-0.052,1.429-0.052c0.492,0,0.987,0.034,1.48,0.052v-0.353c-0.494-0.089-0.672-0.3-0.672-0.83v-1.55
			c0-0.777,0.125-1.412,0.125-1.8c0-0.564,0.458-1.501,1.2-1.501c0.617,0,0.88,0.284,1.111,0.602h0.354v-1.659
			c-0.336-0.229-0.775-0.37-1.112-0.37c-0.705,0-1.376,0.9-1.729,1.446h-0.035l-0.052-1.482h-0.354
			c-0.441,0.354-1.235,0.811-2.116,0.987v0.372C279.088,419.524,279.318,419.735,279.318,420.334z"/>
		<path d="M292.103,425.751c1.147,0,2.029-0.142,3.44-0.407l0.547-1.958l-0.547-0.229c-0.775,1.234-2.064,1.851-3.492,1.851
			c-1.464,0-5.063-0.846-5.063-5.821c0-2.962,1.271-5.432,4.34-5.432c1.516,0,3.245,0.653,3.792,2.311h0.741l-0.142-2.346
			c-1.252-0.317-2.134-0.705-4.425-0.705c-3.953,0-6.756,2.681-6.756,6.314C284.538,422.505,286.848,425.751,292.103,425.751z"/>
		<path d="M298.875,425.714c0.777,0,1.341-0.422,1.939-0.865c0.214,0.443,0.741,0.777,1.411,0.865l1.326-1.059l-0.267-0.264
			c-0.123,0.034-0.282,0.07-0.37,0.07c-0.389,0-0.529-0.229-0.529-1.041v-0.618c0.016-1.004,0.069-1.922,0.069-2.557
			c0-1.765-1.34-2.188-2.908-2.188c-0.831,0-1.535,0.105-2.276,0.318v1.675h0.424c0.443-0.654,0.881-0.936,1.747-0.936
			c1.197,0,1.269,1.058,1.269,2.012c-0.247,0-0.546-0.052-0.828-0.052c-1.605,0-3.388,0.723-3.388,2.591
			C296.495,424.975,297.677,425.714,298.875,425.714z M299.865,421.676c0.315,0,0.654,0.051,0.846,0.088l0.051,2.592
			c-0.28,0.179-0.632,0.3-1.181,0.3c-0.74,0-1.375-0.616-1.375-1.429C298.206,422.098,299.052,421.676,299.865,421.676z"/>
		<path d="M305.736,416.879c0.513,0,0.971-0.371,0.971-0.901c0-0.529-0.458-0.9-0.971-0.9c-0.512,0-0.97,0.372-0.97,0.9
			C304.766,416.508,305.224,416.879,305.736,416.879z"/>
		<path d="M304.712,419.841c0.143,0.37,0.249,1.076,0.249,2.345v2.188c0,0.601-0.193,0.688-0.616,0.794v0.353
			c0.474-0.019,0.952-0.053,1.427-0.053c0.531,0,1.06,0.053,1.589,0.053v-0.353c-0.407-0.105-0.688-0.193-0.688-0.794v-2.575
			c0-1.447-0.069-2.999-0.069-3.74h-0.355c-0.528,0.353-1.463,0.689-2.273,0.881v0.354
			C304.396,419.364,304.572,419.487,304.712,419.841z"/>
		<path d="M308.648,419.4l2.027,2.752l-1.71,2.187c-0.23,0.302-0.599,0.741-1.164,0.83v0.353c0.388-0.019,0.758-0.053,1.145-0.053
			c0.461,0,0.937,0.034,1.396,0.053v-0.353c-0.231-0.036-0.371-0.123-0.371-0.406c0-0.158,0.14-0.493,0.247-0.652l0.952-1.288
			l0.953,1.357c0.142,0.213,0.282,0.495,0.282,0.602c0,0.176-0.16,0.369-0.354,0.388v0.353c0.529-0.019,1.041-0.053,1.569-0.053
			c0.529,0,1.041,0.034,1.568,0.053v-0.353c-0.44-0.142-0.846-0.583-1.108-0.935l-1.905-2.646l1.498-1.904
			c0.388-0.496,0.759-0.917,1.447-1.076v-0.353c-0.459,0.017-0.936,0.051-1.394,0.051c-0.477,0-0.935-0.035-1.411-0.051v0.353
			c0.282,0.105,0.494,0.228,0.494,0.563c0,0.124-0.087,0.335-0.265,0.582l-0.864,1.146l-0.971-1.323
			c-0.157-0.212-0.211-0.44-0.211-0.565c0-0.262,0.158-0.299,0.369-0.404v-0.353c-0.527,0.017-1.057,0.051-1.585,0.051
			c-0.531,0-1.079-0.035-1.608-0.051v0.353C308.187,418.835,308.314,418.959,308.648,419.4z"/>
		<path d="M317.785,425.714c0.776,0,1.34-0.422,1.938-0.865c0.214,0.443,0.741,0.777,1.411,0.865l1.322-1.059l-0.265-0.264
			c-0.123,0.034-0.28,0.07-0.37,0.07c-0.389,0-0.529-0.229-0.529-1.041v-0.618c0.02-1.004,0.073-1.922,0.073-2.557
			c0-1.765-1.342-2.188-2.911-2.188c-0.83,0-1.536,0.105-2.277,0.318v1.675h0.424c0.442-0.654,0.883-0.936,1.745-0.936
			c1.201,0,1.271,1.058,1.271,2.012c-0.245,0-0.548-0.052-0.828-0.052c-1.604,0-3.386,0.723-3.386,2.591
			C315.403,424.975,316.584,425.714,317.785,425.714z M318.771,421.676c0.318,0,0.652,0.051,0.846,0.088l0.054,2.592
			c-0.281,0.179-0.635,0.3-1.183,0.3c-0.739,0-1.375-0.616-1.375-1.429C317.113,422.098,317.958,421.676,318.771,421.676z"/>
		<polygon points="244.576,427.685 244.576,427.894 259.83,427.894 259.83,427.685 259.83,427.475 244.576,427.475 		"/>
		<polygon points="269.336,427.475 269.336,427.685 269.336,427.894 375.337,427.894 375.337,427.685 375.337,427.475 		"/>
	</g>
	<path fill="#3E96D5" d="M240.997,425.59c-0.186-0.271-0.27-0.589-0.476-0.859c-0.142-0.504-0.599-0.869-0.646-1.41
		c-0.335-0.485-0.605-0.991-0.933-1.467c-0.177-0.148-0.28-0.353-0.347-0.559c-0.411-0.58-0.811-1.13-1.306-1.663
		c-0.234,0.036-0.234-0.279-0.448-0.279c-0.364-0.291-0.412-0.767-0.831-1.018c-0.188-0.226-0.514-0.31-0.569-0.617
		c0.306-0.43,0.67-0.849,1.045-1.233c0.412-0.597,0.99-0.988,1.232-1.653c0.57-1.11,1.652-1.998,1.728-3.314
		c-0.055-0.167-0.234-0.149-0.364-0.177c-0.262,0.075-0.626,0-0.747,0.326c-0.55,0.364-1.158,0.626-1.737,0.944
		c-0.148,0.103-0.298,0.205-0.486,0.224c-0.354,0.187-0.682,0.44-1.009,0.672c-0.186,0.046-0.345,0.158-0.522,0.244
		c-0.139,0.317-0.513,0.344-0.746,0.579c-0.569,0.401-1.224,0.606-1.803,0.969c-0.12,0.049-0.149,0.208-0.279,0.226
		c-0.149,0.037-0.327,0.019-0.439-0.084c-0.429-0.608-1.092-0.859-1.644-1.25c-0.439-0.329-0.942-0.525-1.439-0.72
		c-0.477-0.092-0.914-0.261-1.391-0.374c-0.159,0.103-0.336-0.01-0.494,0.057c-0.046,0.084-0.132,0.158-0.122,0.26
		c0.131,0.226-0.027,0.534,0.139,0.739c0.177,0.691,0.692,1.241,0.972,1.896l0.738,1.01l0.009,0.111
		c-0.26,0.009-0.505-0.111-0.765-0.15c-0.785-0.018-1.551-0.149-2.344-0.168c-0.44,0.074-0.915-0.048-1.354,0.028
		c-0.692,0.14-1.428,0.158-2.092,0.363c-0.672,0.243-1.419,0.42-1.887,1.056v0.085c0.178,0.139,0.317,0.354,0.571,0.336
		c0.259,0.028,0.465,0.214,0.756,0.176c0.382,0.206,0.848,0.177,1.232,0.364c0.188,0.104,0.412,0.066,0.606,0.057
		c0.3,0.186,0.692,0.149,1.018,0.214c0.803,0.168,1.654,0.279,2.494,0.29c0.515,0.14,1.027,0.028,1.578,0.056
		c0.039,0.01,0.093,0.028,0.093,0.083c-0.194,0.786-0.505,1.523-0.756,2.29c-0.027,0.168,0.008,0.326-0.027,0.486
		c-0.253,0.176-0.273,0.465-0.365,0.708c0.028,0.262-0.021,0.552-0.141,0.775c-0.036,0.384-0.147,0.766-0.281,1.122
		c-0.026,0.288-0.073,0.577-0.186,0.84c0.084,0.42-0.121,0.765-0.129,1.177l0.045,0.131c-0.055,0.299,0.021,0.606-0.102,0.878
		c0.14,0.178,0.009,0.477,0.112,0.672c0.028,0.13,0.177,0.113,0.281,0.142c0.232-0.151,0.448-0.271,0.632-0.506
		c0.862-0.643,1.187-1.615,1.795-2.42c0.457-0.772,0.839-1.577,1.277-2.361c0.159-0.485,0.543-0.886,0.552-1.438
		c0.251-0.385,0.159-0.916,0.514-1.262c0.046-0.076,0-0.187,0.046-0.263c0.532,0.298,1.009,0.738,1.532,1.058
		c0.233,0.082,0.317,0.362,0.56,0.391c0.316,0.253,0.636,0.485,0.953,0.73c0.701,0.401,1.25,1.017,1.942,1.446
		c0.261,0.131,0.374,0.457,0.655,0.531c0.718,0.619,1.521,1.039,2.25,1.628c0.708,0.429,1.438,0.831,2.204,1.11
		c0.149-0.028,0.252,0.159,0.381,0.057c0.076-0.103,0.16-0.243,0.095-0.384C241.484,426.888,241.287,426.227,240.997,425.59z"/>
	<path fill="#EAB82D" d="M225.75,420.505c-0.098-0.298-0.425-0.18-0.643-0.254c-0.289,0.063-0.614,0.028-0.867,0.191
		c-0.074,0.127-0.219,0.144-0.326,0.216l-0.19,0.517c-0.072,0.352,0,0.706,0.272,0.949c0.478,0.436,1.247,0.316,1.764,0.046
		l0.405-0.598l-0.08-0.561C225.922,420.885,225.933,420.632,225.75,420.505z"/>
	<path fill="#CB522A" d="M225.634,425.391c-0.091-0.372-0.197-0.74-0.37-1.086c-0.227-0.062-0.2-0.326-0.417-0.405
		c-0.154,0.025-0.271-0.092-0.436-0.092c-0.162,0.145-0.334-0.048-0.513-0.019c-0.101,0.117-0.255,0.045-0.381,0.072
		c-0.335,0.207-0.77,0.298-0.949,0.715c-0.29,0.107-0.208,0.461-0.497,0.616l-0.172,0.776l0.055,0.453
		c-0.073,0.272,0.098,0.517,0.017,0.789c0.027,0.224,0.234,0.314,0.327,0.514c0.235,0.2,0.479,0.399,0.751,0.507
		c0.107,0.136,0.325,0.118,0.479,0.2c0.271-0.012,0.58,0.09,0.805-0.082c0.353,0.054,0.379-0.379,0.669-0.472
		c0.162,0.037,0.218-0.171,0.335-0.243c0.162-0.325,0.353-0.643,0.316-1.022c0.08-0.199,0.109-0.434,0.098-0.644l-0.062-0.035
		C225.75,425.735,225.572,425.607,225.634,425.391z"/>
</g>
</svg>
