<?xml version="1.0" encoding="utf-8"?>
<!-- Generator: Adobe Illustrator 15.0.0, SVG Export Plug-In . SVG Version: 6.00 Build 0)  -->
<!DOCTYPE svg PUBLIC "-//W3C//DTD SVG 1.1//EN" "http://www.w3.org/Graphics/SVG/1.1/DTD/svg11.dtd">
<svg version="1.1" id="Layer_1" xmlns="http://www.w3.org/2000/svg" xmlns:xlink="http://www.w3.org/1999/xlink" x="0px" y="0px"
	 width="158px" height="21px" viewBox="0 0 158 21" enable-background="new 0 0 158 21" xml:space="preserve">
<g>
	<g>
		<path fill="#FFFFFF" d="M110.887,15.779v-0.383c-0.414,0-0.623-0.329-0.623-0.744c0-0.191,0.033-0.573,0.119-0.867l0.471-1.526
			h4.074l0.609,1.612c0.121,0.349,0.205,0.643,0.205,0.883c0,0.399-0.205,0.643-0.568,0.643v0.383c0.59,0,1.162-0.068,1.75-0.068
			c0.59,0,1.164,0.068,1.752,0.068v-0.383c-0.623-0.068-0.779-0.643-1.385-2.185l-3.801-9.748h-0.209l-3.693,9.333
			c-0.33,0.832-0.988,2.463-1.682,2.6v0.383c0.5,0,0.988-0.068,1.49-0.068C109.898,15.71,110.385,15.779,110.887,15.779z
			 M112.865,6.863l1.752,4.562h-3.436L112.865,6.863z"/>
		<path fill="#FFFFFF" d="M121.971,15.951c0.588,0,0.918-0.086,1.213-0.26l1.006-0.883c0.279,0.519,0.766,0.952,1.318,1.143
			c0.33-0.416,0.973-0.885,1.58-1.282l-0.26-0.261c-0.123,0.069-0.244,0.14-0.486,0.14c-0.398,0-0.537-0.348-0.537-0.974V9.257
			c0-2.498,0.068-4.44,0.068-5.794h-0.346c-0.436,0.485-1.475,0.973-2.324,1.197v0.346c0.451,0.071,0.885,0.313,0.885,1.284v2.566
			c-0.592-0.276-1.18-0.434-1.77-0.434c-2.223,0-3.854,1.388-3.854,3.799C118.467,14.322,119.855,15.951,121.971,15.951z
			 M122.266,9.117c1.369,0,1.855,0.694,1.855,2.342v2.845c-0.451,0.434-0.902,0.606-1.406,0.606c-1.508,0-2.377-1.699-2.377-3.141
			C120.342,10.592,120.895,9.117,122.266,9.117z"/>
		<path fill="#FFFFFF" d="M131.078,15.951c0.729,0,1.301-0.138,1.648-0.26l0.938-1.369l-0.176-0.208
			c-0.52,0.379-1.178,0.555-1.818,0.555c-1.787,0-3.021-1.562-2.898-3.277h5.049c-0.018-1.838-1.406-2.967-3.191-2.967
			c-2.359,0-3.537,2.135-3.537,3.763C127.088,13.819,128.266,15.951,131.078,15.951z M130.332,9.015
			c1.129,0,1.611,0.657,1.611,1.682h-3.123C128.791,9.812,129.395,9.015,130.332,9.015z"/>
		<path fill="#FFFFFF" d="M138.121,14.185c0,0.676-0.574,1.073-1.217,1.073c-0.777,0-1.455-0.589-1.629-1.423h-0.641l0.104,1.613
			c0.521,0.33,1.404,0.503,2.014,0.503c1.492,0,2.756-0.676,2.756-2.323c0-2.377-3.451-1.752-3.451-3.417
			c0-0.712,0.504-1.094,1.197-1.094c0.938,0,1.424,0.436,1.613,1.319h0.557l0.068-1.562c-0.729-0.225-1.457-0.451-2.203-0.451
			c-1.422,0-2.74,0.693-2.74,2.29C134.547,13.177,138.121,12.916,138.121,14.185z"/>
		<path fill="#FFFFFF" d="M140.93,6.048c0.053,0.659,0.139,1.96,0.139,2.967v5.618c0,0.382-0.139,0.693-0.693,0.779v0.348
			c0.502,0,0.988-0.051,1.49-0.051c0.521,0,1.043,0.051,1.562,0.051v-0.348c-0.537-0.086-0.676-0.397-0.676-0.987V7.696
			c0-1.596,0.051-3.296,0.068-4.232h-0.348c-0.451,0.485-1.818,0.973-2.428,1.06v0.397C140.6,4.92,140.896,5.336,140.93,6.048z"/>
		<path fill="#FFFFFF" d="M146.117,15.951c0.764,0,1.314-0.416,1.906-0.849c0.207,0.433,0.73,0.763,1.389,0.849l1.301-1.04
			l-0.262-0.26c-0.121,0.035-0.273,0.068-0.361,0.068c-0.383,0-0.521-0.228-0.521-1.022V13.09c0.018-0.988,0.068-1.889,0.068-2.515
			c0-1.735-1.318-2.151-2.861-2.151c-0.814,0-1.51,0.104-2.236,0.312v1.647h0.418c0.434-0.643,0.867-0.921,1.717-0.921
			c1.178,0,1.246,1.042,1.246,1.978c-0.24,0-0.537-0.05-0.816-0.05c-1.574,0-3.328,0.71-3.328,2.55
			C143.773,15.224,144.936,15.951,146.117,15.951z M147.088,11.98c0.312,0,0.643,0.052,0.832,0.087l0.053,2.549
			c-0.277,0.176-0.625,0.296-1.164,0.296c-0.727,0-1.352-0.606-1.352-1.405C145.457,12.396,146.289,11.98,147.088,11.98z"/>
		<path fill="#FFFFFF" d="M154.65,14.185c0,0.676-0.572,1.073-1.215,1.073c-0.781,0-1.457-0.589-1.631-1.423h-0.641l0.104,1.613
			c0.521,0.33,1.406,0.503,2.012,0.503c1.49,0,2.758-0.676,2.758-2.323c0-2.377-3.451-1.752-3.451-3.417
			c0-0.712,0.506-1.094,1.197-1.094c0.936,0,1.424,0.436,1.611,1.319h0.559l0.066-1.562c-0.729-0.225-1.459-0.451-2.205-0.451
			c-1.42,0-2.738,0.693-2.738,2.29C151.078,13.177,154.65,12.916,154.65,14.185z"/>
		<path fill="#FFFFFF" d="M32.168,13.008c0,1.359-1.06,2.239-2.382,2.239c-1.146,0-2.379-0.793-2.662-1.956h-0.637l0.176,1.887
			c0.582,0.389,1.996,0.812,3.141,0.812c2.082,0,4.076-1.307,4.076-3.583c0-4.779-6.016-2.485-6.016-6.208
			c0-1.235,1.096-2.205,2.293-2.205c1.322,0,2.416,0.531,2.893,1.87h0.671V3.943c-1.06-0.547-2.257-0.688-3.44-0.688
			c-2.238,0-4.127,1.499-4.127,3.846C26.154,11.703,32.168,9.905,32.168,13.008z"/>
		<path fill="#FFFFFF" d="M41.832,11.316c-0.016-1.87-1.428-3.018-3.245-3.018c-2.397,0-3.597,2.168-3.597,3.829
			c0,1.659,1.199,3.826,4.056,3.826c0.741,0,1.323-0.14,1.675-0.263l0.955-1.396l-0.18-0.211c-0.527,0.389-1.198,0.564-1.852,0.564
			c-1.814,0-3.068-1.589-2.945-3.334L41.832,11.316L41.832,11.316z M38.289,8.898c1.146,0,1.639,0.671,1.639,1.712h-3.174
			C36.718,9.709,37.335,8.898,38.289,8.898z"/>
		<path fill="#FFFFFF" d="M45.89,8.299c-1.71,0-3.105,1.006-3.105,2.805c0,1.11,0.797,2.029,1.729,2.521
			c-0.882,0.548-1.905,1.06-1.905,2.17c0,0.459,0.125,0.671,1.305,0.531v0.034c-0.512,0.229-1.021,0.635-1.021,1.252
			c0,1.464,1.799,1.711,2.893,1.711c1.658,0,4.058-0.706,4.058-2.75c0-1.236-0.882-1.59-2.664-1.59c-1.129,0-1.78,0.054-2.451,0.054
			c-0.212,0-0.407-0.054-0.407-0.301c0-0.44,0.76-0.863,1.642-0.863c1.94,0,3.476-0.688,3.476-2.805c0-0.334-0.07-0.724-0.334-1.305
			h1.198V8.916h-1.94C47.654,8.493,46.806,8.299,45.89,8.299z M46.436,16.289c1.409,0,2.134,0.229,2.134,0.953
			c0,1.163-1.606,1.48-2.504,1.48c-0.725,0-1.974-0.264-1.974-1.218C44.092,16.555,44.902,16.289,46.436,16.289z M46.102,13.273
			c-1.022,0-1.606-0.812-1.606-2.188c0-1.375,0.584-2.186,1.606-2.186c1.04,0,1.622,0.811,1.622,2.186
			C47.723,12.462,47.141,13.273,46.102,13.273z"/>
		<path fill="#FFFFFF" d="M51.799,9.674c0,0.426,0.052,1.094,0.052,1.801v1.64c0,1.606,0.864,2.84,2.626,2.84
			c0.673,0,1.802-0.492,2.294-0.917c0.141,0.248,0.989,0.917,1.148,0.917c0.141,0,1.479-0.635,1.656-0.739l-0.141-0.335
			c-0.158,0.071-0.264,0.122-0.441,0.122c-0.354,0-0.527-0.228-0.527-0.934V9.675c0-0.512,0.174-0.704,0.527-0.827V8.494
			c-0.422,0.051-0.862,0.051-1.287,0.051c-0.53,0-1.04,0.018-1.57-0.051v0.354c0.514,0.157,0.618,0.403,0.618,0.827v4.833
			c-0.37,0.267-0.882,0.388-1.323,0.388c-1.181,0-1.869-0.616-1.869-1.955v-1.396c0-0.706-0.052-1.443-0.052-1.869
			c0-0.494,0.174-0.704,0.74-0.827V8.494c-0.495,0.051-0.97,0.051-1.466,0.051c-0.512,0-1.004,0-1.516-0.051v0.354
			C51.693,8.864,51.799,9.095,51.799,9.674z"/>
		<path fill="#FFFFFF" d="M60.83,10.573c0,0.583,0.088,1.324,0.088,2.135v1.869c0,0.53-0.178,0.741-0.529,0.83v0.354
			c0.477-0.019,0.952-0.053,1.43-0.053c0.491,0,0.986,0.034,1.479,0.053v-0.354c-0.494-0.089-0.672-0.3-0.672-0.83v-1.55
			c0-0.777,0.125-1.412,0.125-1.8c0-0.564,0.458-1.501,1.2-1.501c0.617,0,0.879,0.284,1.11,0.602h0.354V8.669
			c-0.336-0.229-0.775-0.37-1.112-0.37c-0.705,0-1.376,0.9-1.729,1.446h-0.035l-0.051-1.481h-0.354
			c-0.44,0.354-1.235,0.811-2.116,0.986v0.372C60.599,9.764,60.83,9.975,60.83,10.573z"/>
		<path fill="#FFFFFF" d="M73.615,15.99c1.146,0,2.028-0.142,3.439-0.407l0.547-1.958l-0.547-0.229
			c-0.775,1.233-2.064,1.851-3.492,1.851c-1.464,0-5.062-0.846-5.062-5.821c0-2.962,1.271-5.432,4.34-5.432
			c1.516,0,3.245,0.653,3.792,2.312h0.741L77.23,3.959c-1.252-0.316-2.134-0.705-4.425-0.705c-3.953,0-6.756,2.682-6.756,6.314
			C66.049,12.744,68.359,15.99,73.615,15.99z"/>
		<path fill="#FFFFFF" d="M80.387,15.953c0.777,0,1.34-0.422,1.939-0.865c0.213,0.443,0.74,0.777,1.41,0.865l1.326-1.059
			l-0.268-0.265c-0.123,0.034-0.281,0.07-0.369,0.07c-0.389,0-0.529-0.229-0.529-1.041v-0.618c0.016-1.004,0.068-1.922,0.068-2.557
			c0-1.765-1.34-2.188-2.908-2.188c-0.83,0-1.533,0.105-2.276,0.318v1.675h0.424c0.444-0.653,0.881-0.936,1.749-0.936
			c1.197,0,1.268,1.058,1.268,2.012c-0.246,0-0.545-0.052-0.828-0.052c-1.604,0-3.387,0.723-3.387,2.591
			C78.006,15.214,79.188,15.953,80.387,15.953z M81.377,11.915c0.314,0,0.654,0.051,0.846,0.088l0.051,2.593
			c-0.279,0.179-0.633,0.3-1.182,0.3c-0.74,0-1.375-0.616-1.375-1.43C79.717,12.337,80.562,11.915,81.377,11.915z"/>
		<path fill="#FFFFFF" d="M87.248,7.118c0.512,0,0.971-0.371,0.971-0.901c0-0.528-0.459-0.899-0.971-0.899s-0.971,0.372-0.971,0.899
			C86.277,6.747,86.736,7.118,87.248,7.118z"/>
		<path fill="#FFFFFF" d="M86.223,10.08c0.145,0.37,0.25,1.076,0.25,2.345v2.188c0,0.601-0.193,0.688-0.615,0.794v0.354
			c0.473-0.02,0.951-0.054,1.426-0.054c0.531,0,1.061,0.054,1.59,0.054v-0.354c-0.408-0.105-0.689-0.193-0.689-0.794v-2.575
			c0-1.447-0.068-2.999-0.068-3.74H87.76c-0.527,0.354-1.463,0.689-2.271,0.882v0.354C85.908,9.604,86.084,9.727,86.223,10.08z"/>
		<path fill="#FFFFFF" d="M90.16,9.64l2.025,2.752l-1.709,2.187c-0.23,0.302-0.6,0.741-1.164,0.83v0.354
			c0.389-0.02,0.758-0.054,1.145-0.054c0.461,0,0.938,0.034,1.396,0.054v-0.354c-0.23-0.036-0.371-0.123-0.371-0.406
			c0-0.157,0.141-0.493,0.246-0.651l0.953-1.288l0.953,1.356c0.141,0.213,0.281,0.495,0.281,0.603c0,0.176-0.16,0.369-0.354,0.388
			v0.354c0.529-0.02,1.041-0.054,1.568-0.054c0.529,0,1.041,0.034,1.568,0.054v-0.354c-0.439-0.142-0.846-0.583-1.107-0.935
			l-1.906-2.646l1.498-1.904c0.389-0.495,0.76-0.917,1.447-1.075V8.495c-0.459,0.018-0.936,0.051-1.395,0.051
			c-0.477,0-0.934-0.034-1.41-0.051v0.354c0.281,0.104,0.494,0.228,0.494,0.562c0,0.124-0.088,0.335-0.266,0.582l-0.863,1.146
			l-0.971-1.323c-0.158-0.212-0.211-0.44-0.211-0.565c0-0.262,0.158-0.299,0.369-0.403V8.494c-0.527,0.018-1.059,0.051-1.586,0.051
			c-0.531,0-1.078-0.034-1.607-0.051v0.354C89.699,9.074,89.826,9.198,90.16,9.64z"/>
		<path fill="#FFFFFF" d="M99.297,15.953c0.775,0,1.34-0.422,1.938-0.865c0.213,0.443,0.74,0.777,1.41,0.865l1.322-1.059
			l-0.264-0.265c-0.123,0.034-0.281,0.07-0.371,0.07c-0.389,0-0.529-0.229-0.529-1.041v-0.618c0.02-1.004,0.074-1.922,0.074-2.557
			c0-1.765-1.342-2.188-2.912-2.188c-0.83,0-1.535,0.105-2.277,0.318v1.675h0.424c0.443-0.653,0.885-0.936,1.746-0.936
			c1.201,0,1.271,1.058,1.271,2.012c-0.246,0-0.549-0.052-0.828-0.052c-1.605,0-3.387,0.723-3.387,2.591
			C96.914,15.214,98.096,15.953,99.297,15.953z M100.283,11.915c0.316,0,0.65,0.051,0.846,0.088l0.053,2.593
			c-0.281,0.179-0.635,0.3-1.182,0.3c-0.74,0-1.375-0.616-1.375-1.43C98.625,12.337,99.469,11.915,100.283,11.915z"/>
		<polygon fill="#FFFFFF" points="26.087,17.924 26.087,18.133 41.341,18.133 41.341,17.924 41.341,17.714 26.087,17.714 		"/>
		<polygon fill="#FFFFFF" points="50.847,17.714 50.847,17.924 50.847,18.133 156.848,18.133 156.848,17.924 156.848,17.714 		"/>
	</g>
	<path fill="#FFFFFF" d="M22.508,15.829c-0.187-0.271-0.271-0.589-0.476-0.858c-0.143-0.505-0.6-0.869-0.646-1.41
		c-0.335-0.485-0.605-0.991-0.934-1.468c-0.176-0.147-0.279-0.353-0.346-0.559c-0.412-0.58-0.812-1.13-1.307-1.663
		c-0.234,0.036-0.234-0.279-0.448-0.279c-0.364-0.29-0.411-0.767-0.831-1.018c-0.188-0.226-0.514-0.31-0.568-0.617
		c0.306-0.43,0.67-0.849,1.045-1.232c0.412-0.598,0.99-0.988,1.231-1.653c0.57-1.11,1.652-1.998,1.728-3.314
		c-0.055-0.167-0.233-0.148-0.363-0.177c-0.262,0.075-0.626,0-0.747,0.326c-0.55,0.364-1.158,0.626-1.737,0.944
		c-0.147,0.103-0.298,0.205-0.486,0.224c-0.354,0.187-0.682,0.44-1.008,0.672c-0.187,0.046-0.346,0.158-0.522,0.244
		c-0.14,0.317-0.513,0.344-0.746,0.579c-0.569,0.4-1.224,0.605-1.803,0.969c-0.12,0.049-0.149,0.208-0.279,0.227
		c-0.149,0.036-0.327,0.019-0.438-0.084c-0.43-0.608-1.092-0.859-1.645-1.25C10.742,4.102,10.24,3.905,9.742,3.71
		C9.265,3.618,8.828,3.449,8.351,3.336c-0.158,0.104-0.336-0.01-0.494,0.058c-0.046,0.084-0.132,0.157-0.121,0.26
		c0.131,0.226-0.027,0.534,0.139,0.739c0.177,0.69,0.691,1.24,0.972,1.896l0.738,1.01l0.009,0.111
		c-0.26,0.009-0.505-0.111-0.766-0.15C8.043,7.241,7.277,7.11,6.484,7.091C6.044,7.165,5.57,7.043,5.13,7.119
		c-0.691,0.14-1.428,0.158-2.092,0.363c-0.672,0.243-1.42,0.42-1.887,1.056v0.085c0.178,0.14,0.316,0.354,0.57,0.336
		c0.26,0.028,0.465,0.214,0.756,0.177C2.861,9.341,3.326,9.312,3.71,9.499c0.188,0.104,0.412,0.066,0.605,0.058
		c0.301,0.186,0.692,0.148,1.019,0.214c0.803,0.168,1.653,0.278,2.493,0.29c0.516,0.14,1.027,0.027,1.578,0.056
		c0.039,0.01,0.094,0.028,0.094,0.083c-0.194,0.786-0.506,1.523-0.756,2.29c-0.027,0.168,0.008,0.326-0.027,0.486
		c-0.253,0.176-0.273,0.465-0.365,0.708c0.028,0.262-0.021,0.552-0.141,0.774c-0.036,0.385-0.146,0.767-0.281,1.122
		c-0.025,0.288-0.072,0.577-0.186,0.84c0.084,0.42-0.121,0.766-0.129,1.178l0.045,0.131c-0.055,0.299,0.021,0.605-0.103,0.878
		c0.14,0.178,0.009,0.477,0.112,0.672c0.027,0.13,0.177,0.113,0.281,0.142c0.231-0.15,0.447-0.271,0.632-0.506
		c0.862-0.643,1.187-1.615,1.795-2.42c0.457-0.771,0.839-1.577,1.276-2.361c0.16-0.484,0.543-0.886,0.553-1.438
		c0.251-0.385,0.158-0.916,0.514-1.262c0.046-0.076,0-0.188,0.046-0.264c0.532,0.299,1.009,0.738,1.532,1.059
		c0.232,0.082,0.316,0.361,0.561,0.391c0.315,0.253,0.635,0.485,0.952,0.73c0.701,0.4,1.25,1.017,1.942,1.445
		c0.261,0.132,0.374,0.457,0.654,0.531c0.719,0.619,1.521,1.039,2.25,1.628c0.709,0.43,1.438,0.831,2.205,1.11
		c0.148-0.028,0.252,0.159,0.381,0.057c0.076-0.103,0.16-0.243,0.095-0.384C22.996,17.127,22.798,16.466,22.508,15.829z"/>
	<path fill="#FFFFFF" d="M7.261,10.744c-0.098-0.298-0.425-0.18-0.643-0.254c-0.289,0.063-0.614,0.028-0.867,0.191
		c-0.074,0.127-0.219,0.144-0.326,0.216l-0.189,0.517c-0.072,0.353,0,0.706,0.271,0.949c0.479,0.436,1.247,0.316,1.764,0.046
		l0.405-0.598l-0.08-0.562C7.433,11.124,7.445,10.871,7.261,10.744z"/>
	<path fill="#FFFFFF" d="M7.145,15.63c-0.091-0.372-0.196-0.739-0.37-1.086c-0.227-0.062-0.199-0.326-0.416-0.404
		c-0.154,0.024-0.271-0.093-0.437-0.093c-0.162,0.146-0.334-0.048-0.513-0.019c-0.102,0.117-0.256,0.045-0.381,0.072
		c-0.336,0.207-0.771,0.298-0.949,0.715c-0.291,0.106-0.209,0.461-0.498,0.616L3.41,16.207l0.056,0.453
		c-0.073,0.272,0.098,0.517,0.017,0.789c0.027,0.224,0.234,0.314,0.327,0.514c0.235,0.2,0.479,0.399,0.751,0.507
		c0.107,0.137,0.325,0.118,0.479,0.2c0.271-0.012,0.58,0.09,0.806-0.082c0.353,0.055,0.379-0.379,0.669-0.472
		c0.162,0.037,0.219-0.171,0.335-0.243c0.162-0.325,0.353-0.643,0.315-1.021c0.08-0.199,0.109-0.435,0.099-0.645l-0.062-0.035
		C7.261,15.975,7.083,15.847,7.145,15.63z"/>
</g>
</svg>
